<svg id="Group_36566" data-name="Group 36566" xmlns="http://www.w3.org/2000/svg" xmlns:xlink="http://www.w3.org/1999/xlink" width="326.748" height="135.004" viewBox="0 0 326.748 135.004">
  <defs>
    <clipPath id="clip-path">
      <rect id="Rectangle_2403" data-name="Rectangle 2403" width="326.748" height="135.004" fill="none"/>
    </clipPath>
    <clipPath id="clip-path-3">
      <rect id="Rectangle_2358" data-name="Rectangle 2358" width="4.349" height="4.349" fill="none"/>
    </clipPath>
    <clipPath id="clip-path-4">
      <path id="Path_14824" data-name="Path 14824" d="M172.493,47.01s.494-3.785-1.071-2.875-.083,2.875-4.524,6.005c-3.877,2.728-12.015,3.009-19,2.378-1.02-.089-2.012-.2-2.967-.323,1.093,2.03-.633,12.076-2.5,13.788,1.468.009,2.862-.022,4.183-.088,19.179-.918,23.052-9.01,28.291-13.1,6.329-4.944,10.173-10.64,8.937-11.4a.555.555,0,0,0-.288-.063c-2.048,0-11.063,5.676-11.063,5.676" transform="translate(-142.433 -41.334)" fill="none"/>
    </clipPath>
    <linearGradient id="linear-gradient" x1="-2.717" y1="3.561" x2="-2.697" y2="3.561" gradientUnits="objectBoundingBox">
      <stop offset="0" stop-color="#ffd7cd"/>
      <stop offset="1" stop-color="#ef8f8b"/>
    </linearGradient>
    <clipPath id="clip-path-6">
      <rect id="Rectangle_2361" data-name="Rectangle 2361" width="40.756" height="48.386" fill="none"/>
    </clipPath>
    <clipPath id="clip-path-7">
      <rect id="Rectangle_2362" data-name="Rectangle 2362" width="14.929" height="9.592" fill="none"/>
    </clipPath>
    <clipPath id="clip-path-8">
      <path id="Path_14829" data-name="Path 14829" d="M109.41,75.169c-1.122,1.031-1.894,2.061-2.092,1.924-.411-.291.618-2.922-1.395-2.756s-3.624,5.221-4.731,5.3c-1.035.078-16.613-.143-19.018-4.685a2.536,2.536,0,0,1-.313-1.085s-11.079,5.156-17.006.766a25.322,25.322,0,0,0,2.128,6.2c6.323,12.409,21.58,10.9,35.113,6.582,12.667-2.381,15.3-13.368,11.928-14.106a3.363,3.363,0,0,0-.716-.077,6.164,6.164,0,0,0-3.9,1.938" transform="translate(-64.855 -73.231)" fill="none"/>
    </clipPath>
    <linearGradient id="linear-gradient-2" x1="-1.054" y1="3.488" x2="-1.037" y2="3.488" xlink:href="#linear-gradient"/>
    <clipPath id="clip-path-10">
      <path id="Path_14831" data-name="Path 14831" d="M109.256,19.525l-1.145,3.11s-.9-2.2-2.938-1.3-.463,4.369,2.065,3.6l-2.128,4.64s-.07,1.425-.167,2.871c-.1,1.4-.113,3.231,3.062,4.455.1.044.2.079.311.119a7.083,7.083,0,0,0,.74.217,6.358,6.358,0,0,0,5.8-1.532c.034-.04.07-.074.1-.1.625-.67.306-1.3.981-2.738,7.635.189,6.678-9.781,5.992-13.788q-.076-.428-.143-.759a61.565,61.565,0,0,1-12.527,1.205" transform="translate(-104.238 -18.32)" fill="none"/>
    </clipPath>
    <linearGradient id="linear-gradient-3" x1="-2.994" y1="4.384" x2="-2.963" y2="4.384" xlink:href="#linear-gradient"/>
    <clipPath id="clip-path-12">
      <rect id="Rectangle_2367" data-name="Rectangle 2367" width="17.688" height="18.586" fill="none"/>
    </clipPath>
    <clipPath id="clip-path-13">
      <rect id="Rectangle_2368" data-name="Rectangle 2368" width="4.839" height="3.447" fill="none"/>
    </clipPath>
    <clipPath id="clip-path-14">
      <rect id="Rectangle_2369" data-name="Rectangle 2369" width="17.319" height="7.175" fill="none"/>
    </clipPath>
    <clipPath id="clip-path-15">
      <rect id="Rectangle_2370" data-name="Rectangle 2370" width="5.807" height="13.789" fill="none"/>
    </clipPath>
    <clipPath id="clip-path-16">
      <rect id="Rectangle_2371" data-name="Rectangle 2371" width="3.591" height="3.59" fill="none"/>
    </clipPath>
    <clipPath id="clip-path-17">
      <rect id="Rectangle_2372" data-name="Rectangle 2372" width="42.021" height="50.569" fill="none"/>
    </clipPath>
    <clipPath id="clip-path-18">
      <rect id="Rectangle_2373" data-name="Rectangle 2373" width="11.661" height="9.791" fill="none"/>
    </clipPath>
    <clipPath id="clip-path-19">
      <path id="Path_14845" data-name="Path 14845" d="M264.351,22.435c-.742,3.55-.742,7.824,1.7,9.56a5.307,5.307,0,0,0,4.316,1.181,2.287,2.287,0,0,0,.619-.231s.411,1.394.609,2.521a6.971,6.971,0,0,1,.107.816c.041.794,2.99,1.87,5.492,1.191a4.414,4.414,0,0,0,2.512-1.685c.369-1.431-.231-3.753.189-5.627l-.107-.074s-.794-2.742-.465-3.513,2-1.038,1.892-2.521-.849-2.442-2.548-2.247a2.465,2.465,0,0,0-2.141,1.426,3.339,3.339,0,0,0-3.342-2.692,28.119,28.119,0,0,1-8.212-.452,21.037,21.037,0,0,0-.619,2.344" transform="translate(-263.917 -20.091)" fill="none"/>
    </clipPath>
    <linearGradient id="linear-gradient-4" x1="-8.831" y1="4.799" x2="-8.797" y2="4.799" xlink:href="#linear-gradient"/>
    <clipPath id="clip-path-20">
      <path id="Path_14846" data-name="Path 14846" d="M264.874,72.313c-1.482.439-2.959,3.619,0,7.238,2.645,3.227,8.3,5.253,12.213,7.117a.84.84,0,0,1-.257-.424c0-.7.8-5.585.964-6.532-1.667-.946-3.213-5.549-4.363-5.812-1.209-.272.545,2.636-1.154,2.964-.841.163-2.3-1.06-3.741-2.282-1.353-1.148-2.688-2.3-3.475-2.3a.665.665,0,0,0-.188.025" transform="translate(-263.165 -72.288)" fill="none"/>
    </clipPath>
    <linearGradient id="linear-gradient-5" x1="-11.213" y1="3.686" x2="-11.17" y2="3.686" xlink:href="#linear-gradient"/>
    <clipPath id="clip-path-21">
      <path id="Path_14847" data-name="Path 14847" d="M197.213,41.709c-1.851.683,4.952,11.3,12.8,14.181-.037-1.8,1.334-3.928,2.331-5.294a.987.987,0,0,1,.572-.355c-1.136-1.445-2.682-6.039-4.03-6.5-1.587-.545-.328,2.47-.933,3.019-.3.272-2.455-1.131-4.793-2.534-2.141-1.284-4.435-2.568-5.591-2.568a1.052,1.052,0,0,0-.361.056" transform="translate(-196.906 -41.653)" fill="none"/>
    </clipPath>
    <linearGradient id="linear-gradient-6" x1="-8.071" y1="4.667" x2="-8.029" y2="4.667" xlink:href="#linear-gradient"/>
    <clipPath id="clip-path-23">
      <rect id="Rectangle_2378" data-name="Rectangle 2378" width="16.868" height="17.384" fill="none"/>
    </clipPath>
    <clipPath id="clip-path-24">
      <rect id="Rectangle_2379" data-name="Rectangle 2379" width="2.892" height="3.616" fill="none"/>
    </clipPath>
  </defs>
  <g id="Group_36565" data-name="Group 36565" clip-path="url(#clip-path)">
    <g id="Group_36455" data-name="Group 36455">
      <g id="Group_36454" data-name="Group 36454" clip-path="url(#clip-path)">
        <path id="Path_14820" data-name="Path 14820" d="M104.227,111.28l-6.074,3.671-31.2,18.859-3.8,2.3a3.558,3.558,0,0,1-4.882-1.206L25.261,80.291,13.271,60.457a3.554,3.554,0,0,1,1.2-4.882l3.76-2.273c.011-.009.025-.016.039-.025L55.544,30.749a3.553,3.553,0,0,1,4.882,1.2L62.3,35.045,72.844,52.5l5.577,9.229v0l24.256,40.127,2.748,4.546a3.556,3.556,0,0,1-1.2,4.88" transform="translate(-1.782 -4.223)" fill="#2b1f4e"/>
        <path id="Path_14821" data-name="Path 14821" d="M108.64,108.611l-3.8,2.3-6.074,3.671-31.2,18.859a3.559,3.559,0,0,1-4.882-1.2l-27.6-45.665-17.4-28.782a3.558,3.558,0,0,1,1.165-4.857c.011-.009.025-.016.039-.025L56.161,30.376l3.8-2.3a3.56,3.56,0,0,1,4.882,1.2l45,74.448a3.554,3.554,0,0,1-1.2,4.882" transform="translate(-2.399 -3.85)" fill="#2b1f4e"/>
        <path id="Path_14822" data-name="Path 14822" d="M103.431,103.246l-37.91,22.916a3.108,3.108,0,0,1-4.266-1.052L23.928,63.357a3.106,3.106,0,0,1,1.051-4.266L62.89,36.176a3.106,3.106,0,0,1,4.265,1.051l37.327,61.753a3.106,3.106,0,0,1-1.051,4.266" transform="translate(-3.279 -4.99)" fill="#fff"/>
        <g id="Group_36453" data-name="Group 36453" transform="translate(89.133 122.85)" opacity="0.71" style="mix-blend-mode: overlay;isolation: isolate">
          <g id="Group_36452" data-name="Group 36452">
            <g id="Group_36451" data-name="Group 36451" clip-path="url(#clip-path-3)">
              <path id="Path_14823" data-name="Path 14823" d="M107.64,143.845a2.175,2.175,0,1,1-2.985-.736,2.175,2.175,0,0,1,2.985.736" transform="translate(-103.604 -142.795)"/>
            </g>
          </g>
        </g>
        <line id="Line_291" data-name="Line 291" x2="53.405" y2="88.35" transform="translate(0.689 45.965)" fill="none" stroke="#fff" stroke-linecap="round" stroke-linejoin="round" stroke-width="1.602"/>
      </g>
    </g>
    <g id="Group_36457" data-name="Group 36457" transform="translate(122.539 35.561)">
      <g id="Group_36456" data-name="Group 36456" clip-path="url(#clip-path-4)">
        <rect id="Rectangle_2360" data-name="Rectangle 2360" width="44.725" height="28.457" transform="translate(-2.248 0.207) rotate(-5.252)" fill="url(#linear-gradient)"/>
      </g>
    </g>
    <g id="Group_36465" data-name="Group 36465">
      <g id="Group_36464" data-name="Group 36464" clip-path="url(#clip-path)">
        <path id="Path_14825" data-name="Path 14825" d="M130.966,65.049a1.07,1.07,0,0,1-.3.2c-1.976.822-18.676-.743-23.944-5.184-3,2.862-4.694,10.123-5.64,16.258-.71,4.611-1,8.586-1.1,9.574-.245,2.3-3.457,14.642-23.444,9.952s-16.207-21.386-15.386-22.7c.434-.7,1.838-2.521,3.061-4.085,1.089-1.395,2.039-2.581,2.039-2.581l13.326-13.8,5.184-5.368,8.226-9.135a26.274,26.274,0,0,1,3.458-1.653,26.962,26.962,0,0,1,5.506-1.574,18.391,18.391,0,0,1,6.208-.06,11.331,11.331,0,0,1,3.093,1.08c6.762,3.4,14.3,13.012,22.208,15.289,1.093,2.03-.632,12.075-2.5,13.788" transform="translate(-8.427 -4.841)" fill="#ff6418"/>
        <g id="Group_36460" data-name="Group 36460" transform="translate(51.904 43.675)" opacity="0.15" style="mix-blend-mode: overlay;isolation: isolate">
          <g id="Group_36459" data-name="Group 36459">
            <g id="Group_36458" data-name="Group 36458" clip-path="url(#clip-path-6)">
              <path id="Path_14826" data-name="Path 14826" d="M101.086,78.572c-.711,4.611-1,8.586-1.1,9.574-.245,2.3-3.458,14.642-23.445,9.952S60.332,76.712,61.153,75.4c.434-.7,1.837-2.521,3.06-4.086,1.089-1.394,2.041-2.58,2.041-2.58l13.326-13.8,14.084-4.167s-6.568,9.876-5.8,14.921c.549,3.624,7.509,6.912,13.223,12.885" transform="translate(-60.331 -50.766)"/>
            </g>
          </g>
        </g>
        <path id="Path_14827" data-name="Path 14827" d="M102.573,34.562a19.437,19.437,0,0,1-1.639,5.968,15.661,15.661,0,0,1-5.488,6.721c-7.127,4.718-13.6,20.841-13.6,20.841s-11.078,5.156-17.005.767c0-.065-.009-.125-.009-.189C63.4,43.859,83.994,33.606,97.348,32.069a27.869,27.869,0,0,1,4.792-.176c.387.023.576,1.08.434,2.668" transform="translate(-9.045 -4.45)" fill="#ff6418"/>
        <g id="Group_36463" data-name="Group 36463" transform="translate(87.9 27.407)" opacity="0.25" style="mix-blend-mode: overlay;isolation: isolate">
          <g id="Group_36462" data-name="Group 36462">
            <g id="Group_36461" data-name="Group 36461" clip-path="url(#clip-path-7)">
              <path id="Path_14828" data-name="Path 14828" d="M117.1,35.582c-.222,4.68-3.637,7.08-10.04,5.253q-.477-.139-.9-.3a5.714,5.714,0,0,1-3.868-4.395,9.119,9.119,0,0,1,.281-4.067,27.862,27.862,0,0,1,4.791-.176c.388.023.577,1.08.434,2.668a18.414,18.414,0,0,1,6.208-.06,11.305,11.305,0,0,1,3.093,1.081" transform="translate(-102.17 -31.857)"/>
            </g>
          </g>
        </g>
      </g>
    </g>
    <g id="Group_36467" data-name="Group 36467" transform="translate(55.797 63.003)">
      <g id="Group_36466" data-name="Group 36466" clip-path="url(#clip-path-8)">
        <rect id="Rectangle_2364" data-name="Rectangle 2364" width="52.821" height="20.747" transform="translate(-0.282 0.004) rotate(-0.807)" fill="url(#linear-gradient-2)"/>
      </g>
    </g>
    <g id="Group_36469" data-name="Group 36469">
      <g id="Group_36468" data-name="Group 36468" clip-path="url(#clip-path)">
        <path id="Path_14830" data-name="Path 14830" d="M122.182,15.488c-.465.1-.92.188-1.369.268v0a61.561,61.561,0,0,1-12.527,1.205l-1.145,3.11s-.9-2.2-2.938-1.3-.462,4.369,2.065,3.6l-2.128,4.64s-1.173-4.59-4.751-6.975-2.286-8.455,1.656-8.188c-3.063-6.694,3.79-10.518,11.14-9.47S123.4-1.635,127.316.555s3,13.232-5.134,14.934" transform="translate(-13.589 0)" fill="#121435"/>
      </g>
    </g>
    <g id="Group_36471" data-name="Group 36471" transform="translate(89.679 15.761)">
      <g id="Group_36470" data-name="Group 36470" clip-path="url(#clip-path-10)">
        <rect id="Rectangle_2366" data-name="Rectangle 2366" width="28.276" height="28.181" transform="matrix(0.762, -0.647, 0.647, 0.762, -10.785, 8.221)" fill="url(#linear-gradient-3)"/>
      </g>
    </g>
    <g id="Group_36494" data-name="Group 36494">
      <g id="Group_36493" data-name="Group 36493" clip-path="url(#clip-path)">
        <path id="Path_14832" data-name="Path 14832" d="M118.073,25c-.044.635-.422,1.126-.845,1.1s-.73-.566-.688-1.2.421-1.125.844-1.1.731.566.689,1.2" transform="translate(-16.277 -3.325)" fill="#121435"/>
        <path id="Path_14833" data-name="Path 14833" d="M123.434,24.633c-.043.635-.421,1.126-.844,1.1s-.731-.566-.688-1.2.421-1.125.844-1.1.731.566.688,1.2" transform="translate(-17.026 -3.273)" fill="#121435"/>
        <path id="Path_14834" data-name="Path 14834" d="M113.883,28.484a4.161,4.161,0,0,0,5.923,1.41" transform="translate(-15.906 -3.978)" fill="none" stroke="#121435" stroke-width="1"/>
        <g id="Group_36474" data-name="Group 36474" transform="translate(89.679 15.761)" opacity="0.25" style="mix-blend-mode: overlay;isolation: isolate">
          <g id="Group_36473" data-name="Group 36473">
            <g id="Group_36472" data-name="Group 36472" clip-path="url(#clip-path-12)">
              <path id="Path_14835" data-name="Path 14835" d="M110.4,22.679c-2.369,2.259-4.249,10.2-2.4,14.226-3.174-1.224-3.157-3.05-3.061-4.455.1-1.446.167-2.871.167-2.871l2.128-4.64c-2.527.763-4.106-2.7-2.064-3.606s2.937,1.3,2.937,1.3l1.145-3.111a61.561,61.561,0,0,0,12.527-1.205c.046.221.093.474.144.76-3.132.464-9.437,1.609-11.524,3.6" transform="translate(-104.238 -18.32)"/>
            </g>
          </g>
        </g>
        <g id="Group_36477" data-name="Group 36477" transform="translate(96.536 29.703)" opacity="0.25" style="mix-blend-mode: overlay;isolation: isolate">
          <g id="Group_36476" data-name="Group 36476">
            <g id="Group_36475" data-name="Group 36475" clip-path="url(#clip-path-13)">
              <path id="Path_14836" data-name="Path 14836" d="M117.048,35.131c-.675,1.439-.357,2.067-.981,2.738-.03.03-.065.065-.1.1-4.061-1.118-4.7-4.062-2.55-3.333a7.373,7.373,0,0,0,3.631.491" transform="translate(-112.209 -34.525)"/>
            </g>
          </g>
        </g>
        <g id="Group_36480" data-name="Group 36480" transform="translate(55.797 63.643)" opacity="0.15" style="mix-blend-mode: overlay;isolation: isolate">
          <g id="Group_36479" data-name="Group 36479">
            <g id="Group_36478" data-name="Group 36478" clip-path="url(#clip-path-14)">
              <path id="Path_14837" data-name="Path 14837" d="M82.174,75.06c-1.62,1.865-7.072,7.219-15.192,5.876a25.377,25.377,0,0,1-2.128-6.194c5.927,4.389,17.005-.767,17.005-.767a2.54,2.54,0,0,0,.314,1.085" transform="translate(-64.855 -73.975)"/>
            </g>
          </g>
        </g>
        <g id="Group_36483" data-name="Group 36483" transform="translate(122.54 46.421)" opacity="0.15" style="mix-blend-mode: overlay;isolation: isolate">
          <g id="Group_36482" data-name="Group 36482">
            <g id="Group_36481" data-name="Group 36481" clip-path="url(#clip-path-15)">
              <path id="Path_14838" data-name="Path 14838" d="M146.615,67.657c-1.321.065-2.714.1-4.182.088,1.865-1.713,3.591-11.757,2.5-13.788.955.124,1.948.235,2.968.323.489,2.3.738,6.615-1.284,13.377" transform="translate(-142.434 -53.957)"/>
            </g>
          </g>
        </g>
        <g id="Group_36486" data-name="Group 36486" transform="translate(242.97 115.036)" opacity="0.71" style="mix-blend-mode: overlay;isolation: isolate">
          <g id="Group_36485" data-name="Group 36485">
            <g id="Group_36484" data-name="Group 36484" clip-path="url(#clip-path-16)">
              <path id="Path_14839" data-name="Path 14839" d="M282.675,134.579a1.8,1.8,0,1,0,2.465-.607,1.8,1.8,0,0,0-2.465.607" transform="translate(-282.416 -133.712)"/>
            </g>
          </g>
        </g>
        <path id="Path_14840" data-name="Path 14840" d="M289.5,96.875c-14.808-.1-19.138-9.279-21.279-12.237-1.237-1.717-.194-6.213.036-10.284.171-2.963-.083-5.7-1.952-6.993-4.441-3.07-3.292-4.441-5.1-4.981s-11.517,3.337-27.313,1.69S214.15,58.475,212.668,56.5a2.665,2.665,0,0,1-.521-1.616c-.037-1.8,1.333-3.928,2.331-5.294a.991.991,0,0,1,.572-.355c2.433-.66,10.649,2.894,21.968,2,12.089-.955,20.556-14.346,26.912-16.566a6.368,6.368,0,0,1,.65-.189l2.738,1.2,6.864,3.015,7.1,3.115,7.88,8.088.018.018,11.845,15.1a82.277,82.277,0,0,1,6.083,8.221,17.535,17.535,0,0,1,2.474,5.3c.822,4.441-5.267,18.427-20.075,18.326" transform="translate(-29.631 -4.816)" fill="#de2657"/>
        <g id="Group_36489" data-name="Group 36489" transform="translate(237.997 41.491)" opacity="0.15" style="mix-blend-mode: overlay;isolation: isolate">
          <g id="Group_36488" data-name="Group 36488">
            <g id="Group_36487" data-name="Group 36487" clip-path="url(#clip-path-17)">
              <path id="Path_14841" data-name="Path 14841" d="M298.509,98.8c-14.808-.1-19.138-9.279-21.279-12.237-1.237-1.717-.194-6.213.036-10.284,6.139-5.71,16.05-11.337,16.8-14.342,1.084-4.321-4.663-13.442-4.824-13.705l8.918,3.6.018.018,11.845,15.1s7.736,9.084,8.558,13.524S313.317,98.9,298.509,98.8" transform="translate(-276.635 -48.227)"/>
            </g>
          </g>
        </g>
        <path id="Path_14842" data-name="Path 14842" d="M321.443,57.719a20.247,20.247,0,0,1-15.247-7.57L287,31.611l-5.761-2.248-2.17-1.513-.106-.074s-.794-2.742-.466-3.513,2-1.039,1.893-2.521-.85-2.442-2.548-2.248A2.469,2.469,0,0,0,275.7,20.92a3.339,3.339,0,0,0-3.342-2.691,28.1,28.1,0,0,1-8.212-.453c-3.2-.812-6.1-2.728-6.1-7.057,0-9.158,13.927-8.614,15.192-3.619,4.662-3.458,10.53-3.236,13.326,3.236s4.607,11.129,10.308,12.722,13.054-2.3,16.511,5.54,5.318,10.2,11.9,13.109,6.361,16.4-3.841,16.013" transform="translate(-36.042 -0.494)" fill="#121435"/>
        <path id="Path_14843" data-name="Path 14843" d="M315.895,72.881c-1.358,4.994-4.851,8.936-11.4,10.46-16.83,3.914-24.321-.724-25.738-2.317a.845.845,0,0,1-.258-.425c0-.7.8-5.585.964-6.532.014-.107.023-.162.023-.162s16.783-.328,18.21-8.664-5.045-16.234-11.41-17.989c-2.562-.706-4.875-3.157-6.721-5.83a43.725,43.725,0,0,1-3.453-6.1c-.651-1.395-1.011-2.327-1.011-2.327a45.358,45.358,0,0,1,7.127-1.052c8.193-.5,17.2,1.606,24.788,10.705,6.448,7.732,11.443,20.846,8.881,30.234" transform="translate(-38.424 -4.452)" fill="#de2657"/>
        <g id="Group_36492" data-name="Group 36492" transform="translate(233.026 27.49)" opacity="0.15" style="mix-blend-mode: overlay;isolation: isolate">
          <g id="Group_36491" data-name="Group 36491">
            <g id="Group_36490" data-name="Group 36490" clip-path="url(#clip-path-18)">
              <path id="Path_14844" data-name="Path 14844" d="M282.455,38.051a2.155,2.155,0,0,1-.074.3,5.107,5.107,0,0,1-3.411,3.089,7.145,7.145,0,0,1-5.784-.753c-4.048-2.289-1.731-5.553-1.056-6.366a6.369,6.369,0,0,1,.65-.189l2.738,1.205c-.651-1.395-1.011-2.327-1.011-2.327a45.359,45.359,0,0,1,7.127-1.052c.513,1.976,1.075,4.654.822,6.1" transform="translate(-270.857 -31.953)"/>
            </g>
          </g>
        </g>
      </g>
    </g>
    <g id="Group_36496" data-name="Group 36496" transform="translate(227.055 17.285)">
      <g id="Group_36495" data-name="Group 36495" clip-path="url(#clip-path-19)">
        <rect id="Rectangle_2375" data-name="Rectangle 2375" width="25.249" height="25.276" transform="matrix(0.744, -0.668, 0.668, 0.744, -9.287, 8.061)" fill="url(#linear-gradient-4)"/>
      </g>
    </g>
    <g id="Group_36498" data-name="Group 36498" transform="translate(226.408 62.191)">
      <g id="Group_36497" data-name="Group 36497" clip-path="url(#clip-path-20)">
        <rect id="Rectangle_2376" data-name="Rectangle 2376" width="19.9" height="20.586" transform="matrix(0.44, -0.898, 0.898, 0.44, -6.931, 11.598)" fill="url(#linear-gradient-5)"/>
      </g>
    </g>
    <g id="Group_36500" data-name="Group 36500" transform="translate(169.404 35.835)">
      <g id="Group_36499" data-name="Group 36499" clip-path="url(#clip-path-21)">
        <rect id="Rectangle_2377" data-name="Rectangle 2377" width="20.609" height="22.084" transform="translate(-7.259 11.362) rotate(-63.297)" fill="url(#linear-gradient-6)"/>
      </g>
    </g>
    <g id="Group_36511" data-name="Group 36511">
      <g id="Group_36510" data-name="Group 36510" clip-path="url(#clip-path)">
        <path id="Path_14848" data-name="Path 14848" d="M272.257,24.989a.849.849,0,1,1-.843-.95.9.9,0,0,1,.843.95" transform="translate(-37.791 -3.358)" fill="#121435"/>
        <path id="Path_14849" data-name="Path 14849" d="M267.26,24.861a.849.849,0,1,1-.843-.95.9.9,0,0,1,.843.95" transform="translate(-37.093 -3.34)" fill="#121435"/>
        <path id="Path_14850" data-name="Path 14850" d="M268.642,29.326l5.635-1.522s.288,2.591-2.056,3.172a3.425,3.425,0,0,1-3.579-1.65" transform="translate(-37.522 -3.883)" fill="#fff"/>
        <g id="Group_36503" data-name="Group 36503" transform="translate(227.489 17.285)" opacity="0.25" style="mix-blend-mode: overlay;isolation: isolate">
          <g id="Group_36502" data-name="Group 36502">
            <g id="Group_36501" data-name="Group 36501" clip-path="url(#clip-path-23)">
              <path id="Path_14851" data-name="Path 14851" d="M279.391,26.576c-.328.771.466,3.513.466,3.513l.106.074c-.42,1.874.181,4.2-.189,5.627a4.414,4.414,0,0,1-2.511,1.685c2.669-4.385-.313-12.569-1.025-14.1-.877-1.883-5.539-1.352-9.379-.97a12.433,12.433,0,0,1-2.437.028,20.846,20.846,0,0,1,.619-2.344,28.1,28.1,0,0,0,8.212.453,3.339,3.339,0,0,1,3.342,2.691,2.467,2.467,0,0,1,2.141-1.426c1.7-.194,2.437.766,2.548,2.248s-1.565,1.753-1.893,2.52" transform="translate(-264.421 -20.091)"/>
            </g>
          </g>
        </g>
        <g id="Group_36506" data-name="Group 36506" transform="translate(233.503 29.045)" opacity="0.25" style="mix-blend-mode: overlay;isolation: isolate">
          <g id="Group_36505" data-name="Group 36505">
            <g id="Group_36504" data-name="Group 36504" clip-path="url(#clip-path-24)">
              <path id="Path_14852" data-name="Path 14852" d="M272.641,37.376c-.2-1.126-.609-2.521-.609-2.521a2.3,2.3,0,0,1-.619.231,8.884,8.884,0,0,0,2.2-1.2c1.089-.776.974,2.229-.974,3.489" transform="translate(-271.412 -33.76)"/>
            </g>
          </g>
        </g>
        <path id="Path_14853" data-name="Path 14853" d="M202.266,12.579a5.414,5.414,0,0,1,0,7.657l-1.412,1.421-7.019,7.023a.9.9,0,0,1-1.271,0l-7.283-7.3-.966-1.008a5.415,5.415,0,0,1,7.656-7.659L193.2,14l1.41-1.42A5.414,5.414,0,0,1,202.266,12.579Z" transform="translate(-25.523 -1.536)" fill="#e21a1a"/>
        <path id="Path_14854" data-name="Path 14854" d="M224.588,4.08a1.848,1.848,0,0,1-1.217,2.313l-.652.2L219.481,7.6a.307.307,0,0,1-.384-.2l-1.04-3.363-.132-.458a1.849,1.849,0,1,1,3.531-1.1l.167.583.652-.2a1.847,1.847,0,0,1,2.313,1.217" transform="translate(-30.427 -0.165)" fill="#ef3f3f"/>
        <path id="Path_14855" data-name="Path 14855" d="M170.055,17.2a1.85,1.85,0,0,1,1.757,1.937l-.032.683-.164,3.385a.3.3,0,0,1-.321.291l-3.515-.174-.476-.034a1.848,1.848,0,0,1,.18-3.693l.6.043.031-.683a1.85,1.85,0,0,1,1.936-1.756" transform="translate(-23.122 -2.402)" fill="#ef3f3f"/>
        <path id="Path_14856" data-name="Path 14856" d="M104.227,111.28l-6.074,3.671-31.2,18.859-3.8,2.3a3.558,3.558,0,0,1-4.882-1.206L25.261,80.291,13.271,60.457a3.554,3.554,0,0,1,1.2-4.882l3.76-2.273c.011-.009.025-.016.039-.025L55.544,30.749a3.553,3.553,0,0,1,4.882,1.2L62.3,35.045,72.844,52.5l5.577,9.229v0l24.256,40.127,2.748,4.546a3.556,3.556,0,0,1-1.2,4.88" transform="translate(-1.782 -4.223)" fill="#2b1f4e"/>
        <path id="Path_14857" data-name="Path 14857" d="M108.64,108.611l-3.8,2.3-6.074,3.671-31.2,18.859a3.559,3.559,0,0,1-4.882-1.2l-27.6-45.665-17.4-28.782a3.558,3.558,0,0,1,1.165-4.857c.011-.009.025-.016.039-.025L56.161,30.376l3.8-2.3a3.56,3.56,0,0,1,4.882,1.2l45,74.448a3.554,3.554,0,0,1-1.2,4.882" transform="translate(-2.399 -3.85)" fill="#2b1f4e"/>
        <path id="Path_14858" data-name="Path 14858" d="M103.431,103.246l-37.91,22.916a3.108,3.108,0,0,1-4.266-1.052L23.928,63.357a3.106,3.106,0,0,1,1.051-4.266L62.89,36.176a3.106,3.106,0,0,1,4.265,1.051l37.327,61.753a3.106,3.106,0,0,1-1.051,4.266" transform="translate(-3.279 -4.99)" fill="#fff"/>
        <g id="Group_36509" data-name="Group 36509" transform="translate(89.133 122.85)" opacity="0.71" style="mix-blend-mode: overlay;isolation: isolate">
          <g id="Group_36508" data-name="Group 36508">
            <g id="Group_36507" data-name="Group 36507" clip-path="url(#clip-path-3)">
              <path id="Path_14859" data-name="Path 14859" d="M107.64,143.845a2.175,2.175,0,1,1-2.985-.736,2.175,2.175,0,0,1,2.985.736" transform="translate(-103.604 -142.795)"/>
            </g>
          </g>
        </g>
        <path id="Path_14860" data-name="Path 14860" d="M36.039,50.582a1.051,1.051,0,1,1-1.444-.356,1.051,1.051,0,0,1,1.444.356" transform="translate(-4.761 -6.994)" fill="#92a7ff"/>
        <path id="Path_14861" data-name="Path 14861" d="M51.283,41.065l-8.925,5.4a.33.33,0,1,1-.342-.564l8.925-5.4a.33.33,0,1,1,.342.564" transform="translate(-5.846 -5.65)" fill="#92a7ff"/>
      </g>
    </g>
    <g id="Group_36513" data-name="Group 36513" transform="translate(122.539 35.561)">
      <g id="Group_36512" data-name="Group 36512" clip-path="url(#clip-path-4)">
        <rect id="Rectangle_2382" data-name="Rectangle 2382" width="44.725" height="28.457" transform="translate(-2.248 0.207) rotate(-5.252)" fill="url(#linear-gradient)"/>
      </g>
    </g>
    <g id="Group_36521" data-name="Group 36521">
      <g id="Group_36520" data-name="Group 36520" clip-path="url(#clip-path)">
        <path id="Path_14863" data-name="Path 14863" d="M130.966,65.049a1.07,1.07,0,0,1-.3.2c-1.976.822-18.676-.743-23.944-5.184-3,2.862-4.694,10.123-5.64,16.258-.71,4.611-1,8.586-1.1,9.574-.245,2.3-3.457,14.642-23.444,9.952s-16.207-21.386-15.386-22.7c.434-.7,1.838-2.521,3.061-4.085,1.089-1.395,2.039-2.581,2.039-2.581l13.326-13.8,5.184-5.368,8.226-9.135a26.274,26.274,0,0,1,3.458-1.653,26.962,26.962,0,0,1,5.506-1.574,18.391,18.391,0,0,1,6.208-.06,11.331,11.331,0,0,1,3.093,1.08c6.762,3.4,14.3,13.012,22.208,15.289,1.093,2.03-.632,12.075-2.5,13.788" transform="translate(-8.427 -4.841)" fill="#ff6418"/>
        <g id="Group_36516" data-name="Group 36516" transform="translate(51.904 43.675)" opacity="0.15" style="mix-blend-mode: overlay;isolation: isolate">
          <g id="Group_36515" data-name="Group 36515">
            <g id="Group_36514" data-name="Group 36514" clip-path="url(#clip-path-6)">
              <path id="Path_14864" data-name="Path 14864" d="M101.086,78.572c-.711,4.611-1,8.586-1.1,9.574-.245,2.3-3.458,14.642-23.445,9.952S60.332,76.712,61.153,75.4c.434-.7,1.837-2.521,3.06-4.086,1.089-1.394,2.041-2.58,2.041-2.58l13.326-13.8,14.084-4.167s-6.568,9.876-5.8,14.921c.549,3.624,7.509,6.912,13.223,12.885" transform="translate(-60.331 -50.766)"/>
            </g>
          </g>
        </g>
        <path id="Path_14865" data-name="Path 14865" d="M102.573,34.562a19.437,19.437,0,0,1-1.639,5.968,15.661,15.661,0,0,1-5.488,6.721c-7.127,4.718-13.6,20.841-13.6,20.841s-11.078,5.156-17.005.767c0-.065-.009-.125-.009-.189C63.4,43.859,83.994,33.606,97.348,32.069a27.869,27.869,0,0,1,4.792-.176c.387.023.576,1.08.434,2.668" transform="translate(-9.045 -4.45)" fill="#ff6418"/>
        <g id="Group_36519" data-name="Group 36519" transform="translate(87.9 27.407)" opacity="0.25" style="mix-blend-mode: overlay;isolation: isolate">
          <g id="Group_36518" data-name="Group 36518">
            <g id="Group_36517" data-name="Group 36517" clip-path="url(#clip-path-7)">
              <path id="Path_14866" data-name="Path 14866" d="M117.1,35.582c-.222,4.68-3.637,7.08-10.04,5.253q-.477-.139-.9-.3a5.714,5.714,0,0,1-3.868-4.395,9.119,9.119,0,0,1,.281-4.067,27.862,27.862,0,0,1,4.791-.176c.388.023.577,1.08.434,2.668a18.414,18.414,0,0,1,6.208-.06,11.305,11.305,0,0,1,3.093,1.081" transform="translate(-102.17 -31.857)"/>
            </g>
          </g>
        </g>
      </g>
    </g>
    <g id="Group_36523" data-name="Group 36523" transform="translate(55.797 63.003)">
      <g id="Group_36522" data-name="Group 36522" clip-path="url(#clip-path-8)">
        <rect id="Rectangle_2386" data-name="Rectangle 2386" width="52.821" height="20.747" transform="translate(-0.282 0.004) rotate(-0.807)" fill="url(#linear-gradient-2)"/>
      </g>
    </g>
    <g id="Group_36525" data-name="Group 36525">
      <g id="Group_36524" data-name="Group 36524" clip-path="url(#clip-path)">
        <path id="Path_14868" data-name="Path 14868" d="M122.182,15.488c-.465.1-.92.188-1.369.268v0a61.561,61.561,0,0,1-12.527,1.205l-1.145,3.11s-.9-2.2-2.938-1.3-.462,4.369,2.065,3.6l-2.128,4.64s-1.173-4.59-4.751-6.975-2.286-8.455,1.656-8.188c-3.063-6.694,3.79-10.518,11.14-9.47S123.4-1.635,127.316.555s3,13.232-5.134,14.934" transform="translate(-13.589 0)" fill="#121435"/>
      </g>
    </g>
    <g id="Group_36527" data-name="Group 36527" transform="translate(89.679 15.761)">
      <g id="Group_36526" data-name="Group 36526" clip-path="url(#clip-path-10)">
        <rect id="Rectangle_2388" data-name="Rectangle 2388" width="28.276" height="28.181" transform="matrix(0.762, -0.647, 0.647, 0.762, -10.785, 8.221)" fill="url(#linear-gradient-3)"/>
      </g>
    </g>
    <g id="Group_36550" data-name="Group 36550">
      <g id="Group_36549" data-name="Group 36549" clip-path="url(#clip-path)">
        <path id="Path_14870" data-name="Path 14870" d="M118.073,25c-.044.635-.422,1.126-.845,1.1s-.73-.566-.688-1.2.421-1.125.844-1.1.731.566.689,1.2" transform="translate(-16.277 -3.325)" fill="#121435"/>
        <path id="Path_14871" data-name="Path 14871" d="M123.434,24.633c-.043.635-.421,1.126-.844,1.1s-.731-.566-.688-1.2.421-1.125.844-1.1.731.566.688,1.2" transform="translate(-17.026 -3.273)" fill="#121435"/>
        <path id="Path_14872" data-name="Path 14872" d="M113.883,28.484a4.161,4.161,0,0,0,5.923,1.41" transform="translate(-15.906 -3.978)" fill="none" stroke="#121435" stroke-width="1"/>
        <g id="Group_36530" data-name="Group 36530" transform="translate(89.679 15.761)" opacity="0.25" style="mix-blend-mode: overlay;isolation: isolate">
          <g id="Group_36529" data-name="Group 36529">
            <g id="Group_36528" data-name="Group 36528" clip-path="url(#clip-path-12)">
              <path id="Path_14873" data-name="Path 14873" d="M110.4,22.679c-2.369,2.259-4.249,10.2-2.4,14.226-3.174-1.224-3.157-3.05-3.061-4.455.1-1.446.167-2.871.167-2.871l2.128-4.64c-2.527.763-4.106-2.7-2.064-3.606s2.937,1.3,2.937,1.3l1.145-3.111a61.561,61.561,0,0,0,12.527-1.205c.046.221.093.474.144.76-3.132.464-9.437,1.609-11.524,3.6" transform="translate(-104.238 -18.32)"/>
            </g>
          </g>
        </g>
        <g id="Group_36533" data-name="Group 36533" transform="translate(96.536 29.703)" opacity="0.25" style="mix-blend-mode: overlay;isolation: isolate">
          <g id="Group_36532" data-name="Group 36532">
            <g id="Group_36531" data-name="Group 36531" clip-path="url(#clip-path-13)">
              <path id="Path_14874" data-name="Path 14874" d="M117.048,35.131c-.675,1.439-.357,2.067-.981,2.738-.03.03-.065.065-.1.1-4.061-1.118-4.7-4.062-2.55-3.333a7.373,7.373,0,0,0,3.631.491" transform="translate(-112.209 -34.525)"/>
            </g>
          </g>
        </g>
        <g id="Group_36536" data-name="Group 36536" transform="translate(55.797 63.643)" opacity="0.15" style="mix-blend-mode: overlay;isolation: isolate">
          <g id="Group_36535" data-name="Group 36535">
            <g id="Group_36534" data-name="Group 36534" clip-path="url(#clip-path-14)">
              <path id="Path_14875" data-name="Path 14875" d="M82.174,75.06c-1.62,1.865-7.072,7.219-15.192,5.876a25.377,25.377,0,0,1-2.128-6.194c5.927,4.389,17.005-.767,17.005-.767a2.54,2.54,0,0,0,.314,1.085" transform="translate(-64.855 -73.975)"/>
            </g>
          </g>
        </g>
        <g id="Group_36539" data-name="Group 36539" transform="translate(122.54 46.421)" opacity="0.15" style="mix-blend-mode: overlay;isolation: isolate">
          <g id="Group_36538" data-name="Group 36538">
            <g id="Group_36537" data-name="Group 36537" clip-path="url(#clip-path-15)">
              <path id="Path_14876" data-name="Path 14876" d="M146.615,67.657c-1.321.065-2.714.1-4.182.088,1.865-1.713,3.591-11.757,2.5-13.788.955.124,1.948.235,2.968.323.489,2.3.738,6.615-1.284,13.377" transform="translate(-142.434 -53.957)"/>
            </g>
          </g>
        </g>
        <g id="Group_36542" data-name="Group 36542" transform="translate(242.97 115.036)" opacity="0.71" style="mix-blend-mode: overlay;isolation: isolate">
          <g id="Group_36541" data-name="Group 36541">
            <g id="Group_36540" data-name="Group 36540" clip-path="url(#clip-path-16)">
              <path id="Path_14877" data-name="Path 14877" d="M282.675,134.579a1.8,1.8,0,1,0,2.465-.607,1.8,1.8,0,0,0-2.465.607" transform="translate(-282.416 -133.712)"/>
            </g>
          </g>
        </g>
        <path id="Path_14878" data-name="Path 14878" d="M273.019,100.38l5.45,4.03,27.994,20.7,3.41,2.522a3.4,3.4,0,0,0,4.75-.713l36.236-49,13.163-17.8a3.4,3.4,0,0,0-.711-4.75l-3.373-2.5-.035-.027-33.441-24.73a3.4,3.4,0,0,0-4.75.71l-2.053,2.775L308.081,47.268l-6.123,8.28v0l-26.628,36-3.016,4.079a3.4,3.4,0,0,0,.705,4.746" transform="translate(-37.942 -3.835)" fill="#2b1f4e"/>
        <path id="Path_14879" data-name="Path 14879" d="M269.06,97.452l3.406,2.52,5.45,4.03,27.993,20.7a3.4,3.4,0,0,0,4.75-.711l30.3-40.973,19.1-25.824a3.4,3.4,0,0,0-.676-4.722c-.009-.009-.022-.018-.034-.028l-33.442-24.73-3.41-2.522a3.4,3.4,0,0,0-4.75.711l-49.4,66.8a3.394,3.394,0,0,0,.711,4.749" transform="translate(-37.388 -3.426)" fill="#2b1f4e"/>
        <path id="Path_14880" data-name="Path 14880" d="M276.49,92.865,310.5,118.021a2.967,2.967,0,0,0,4.15-.621l40.977-55.408a2.966,2.966,0,0,0-.621-4.149L321,32.687a2.965,2.965,0,0,0-4.15.621L275.869,88.715a2.966,2.966,0,0,0,.621,4.149" transform="translate(-38.45 -4.484)" fill="#fff"/>
        <line id="Line_292" data-name="Line 292" x1="44.066" y2="59.584" transform="translate(278.607 53.77)" fill="none" stroke="#fff" stroke-linecap="round" stroke-linejoin="round" stroke-width="1.15"/>
        <path id="Path_14881" data-name="Path 14881" d="M273.019,100.38l5.45,4.03,27.994,20.7,3.41,2.522a3.4,3.4,0,0,0,4.75-.713l36.236-49,13.163-17.8a3.4,3.4,0,0,0-.711-4.75l-3.373-2.5-.035-.027-33.441-24.73a3.4,3.4,0,0,0-4.75.71l-2.053,2.775L308.081,47.268l-6.123,8.28v0l-26.628,36-3.016,4.079a3.4,3.4,0,0,0,.705,4.746" transform="translate(-37.942 -3.835)" fill="#2b1f4e"/>
        <path id="Path_14882" data-name="Path 14882" d="M269.06,97.452l3.406,2.52,5.45,4.03,27.993,20.7a3.4,3.4,0,0,0,4.75-.711l30.3-40.973,19.1-25.824a3.4,3.4,0,0,0-.676-4.722c-.009-.009-.022-.018-.034-.028l-33.442-24.73-3.41-2.522a3.4,3.4,0,0,0-4.75.711l-49.4,66.8a3.394,3.394,0,0,0,.711,4.749" transform="translate(-37.388 -3.426)" fill="#2b1f4e"/>
        <path id="Path_14883" data-name="Path 14883" d="M276.49,92.865,310.5,118.021a2.967,2.967,0,0,0,4.15-.621l40.977-55.408a2.966,2.966,0,0,0-.621-4.149L321,32.687a2.965,2.965,0,0,0-4.15.621L275.869,88.715a2.966,2.966,0,0,0,.621,4.149" transform="translate(-38.45 -4.484)" fill="#fff"/>
        <path id="Path_14884" data-name="Path 14884" d="M362.906,53.226a1.216,1.216,0,1,0,1.7-.255,1.216,1.216,0,0,0-1.7.255" transform="translate(-50.655 -7.365)" fill="#92a7ff"/>
        <path id="Path_14885" data-name="Path 14885" d="M344.986,40.482l9.7,7.174a.382.382,0,0,0,.454-.613l-9.7-7.174a.381.381,0,1,0-.453.613" transform="translate(-48.164 -5.558)" fill="#92a7ff"/>
        <path id="Path_14886" data-name="Path 14886" d="M289.5,96.875c-14.808-.1-19.138-9.279-21.279-12.237-1.237-1.717-.194-6.213.036-10.284.171-2.963-.083-5.7-1.952-6.993-4.441-3.07-3.292-4.441-5.1-4.981s-11.517,3.337-27.313,1.69S214.15,58.475,212.668,56.5a2.665,2.665,0,0,1-.521-1.616c-.037-1.8,1.333-3.928,2.331-5.294a.991.991,0,0,1,.572-.355c2.433-.66,10.649,2.894,21.968,2,12.089-.955,20.556-14.346,26.912-16.566a6.368,6.368,0,0,1,.65-.189l2.738,1.2,6.864,3.015,7.1,3.115,7.88,8.088.018.018,11.845,15.1a82.277,82.277,0,0,1,6.083,8.221,17.535,17.535,0,0,1,2.474,5.3c.822,4.441-5.267,18.427-20.075,18.326" transform="translate(-29.631 -4.816)" fill="#de2657"/>
        <g id="Group_36545" data-name="Group 36545" transform="translate(237.997 41.491)" opacity="0.15" style="mix-blend-mode: overlay;isolation: isolate">
          <g id="Group_36544" data-name="Group 36544">
            <g id="Group_36543" data-name="Group 36543" clip-path="url(#clip-path-17)">
              <path id="Path_14887" data-name="Path 14887" d="M298.509,98.8c-14.808-.1-19.138-9.279-21.279-12.237-1.237-1.717-.194-6.213.036-10.284,6.139-5.71,16.05-11.337,16.8-14.342,1.084-4.321-4.663-13.442-4.824-13.705l8.918,3.6.018.018,11.845,15.1s7.736,9.084,8.558,13.524S313.317,98.9,298.509,98.8" transform="translate(-276.635 -48.227)"/>
            </g>
          </g>
        </g>
        <path id="Path_14888" data-name="Path 14888" d="M321.443,57.719a20.247,20.247,0,0,1-15.247-7.57L287,31.611l-5.761-2.248-2.17-1.513-.106-.074s-.794-2.742-.466-3.513,2-1.039,1.893-2.521-.85-2.442-2.548-2.248A2.469,2.469,0,0,0,275.7,20.92a3.339,3.339,0,0,0-3.342-2.691,28.1,28.1,0,0,1-8.212-.453c-3.2-.812-6.1-2.728-6.1-7.057,0-9.158,13.927-8.614,15.192-3.619,4.662-3.458,10.53-3.236,13.326,3.236s4.607,11.129,10.308,12.722,13.054-2.3,16.511,5.54,5.318,10.2,11.9,13.109,6.361,16.4-3.841,16.013" transform="translate(-36.042 -0.494)" fill="#121435"/>
        <path id="Path_14889" data-name="Path 14889" d="M315.895,72.881c-1.358,4.994-4.851,8.936-11.4,10.46-16.83,3.914-24.321-.724-25.738-2.317a.845.845,0,0,1-.258-.425c0-.7.8-5.585.964-6.532.014-.107.023-.162.023-.162s16.783-.328,18.21-8.664-5.045-16.234-11.41-17.989c-2.562-.706-4.875-3.157-6.721-5.83a43.725,43.725,0,0,1-3.453-6.1c-.651-1.395-1.011-2.327-1.011-2.327a45.358,45.358,0,0,1,7.127-1.052c8.193-.5,17.2,1.606,24.788,10.705,6.448,7.732,11.443,20.846,8.881,30.234" transform="translate(-38.424 -4.452)" fill="#de2657"/>
        <g id="Group_36548" data-name="Group 36548" transform="translate(233.026 27.49)" opacity="0.15" style="mix-blend-mode: overlay;isolation: isolate">
          <g id="Group_36547" data-name="Group 36547">
            <g id="Group_36546" data-name="Group 36546" clip-path="url(#clip-path-18)">
              <path id="Path_14890" data-name="Path 14890" d="M282.455,38.051a2.155,2.155,0,0,1-.074.3,5.107,5.107,0,0,1-3.411,3.089,7.145,7.145,0,0,1-5.784-.753c-4.048-2.289-1.731-5.553-1.056-6.366a6.369,6.369,0,0,1,.65-.189l2.738,1.205c-.651-1.395-1.011-2.327-1.011-2.327a45.359,45.359,0,0,1,7.127-1.052c.513,1.976,1.075,4.654.822,6.1" transform="translate(-270.857 -31.953)"/>
            </g>
          </g>
        </g>
      </g>
    </g>
    <g id="Group_36552" data-name="Group 36552" transform="translate(227.055 17.285)">
      <g id="Group_36551" data-name="Group 36551" clip-path="url(#clip-path-19)">
        <rect id="Rectangle_2397" data-name="Rectangle 2397" width="25.249" height="25.276" transform="matrix(0.744, -0.668, 0.668, 0.744, -9.287, 8.061)" fill="url(#linear-gradient-4)"/>
      </g>
    </g>
    <g id="Group_36554" data-name="Group 36554" transform="translate(226.408 62.191)">
      <g id="Group_36553" data-name="Group 36553" clip-path="url(#clip-path-20)">
        <rect id="Rectangle_2398" data-name="Rectangle 2398" width="19.9" height="20.586" transform="matrix(0.44, -0.898, 0.898, 0.44, -6.931, 11.598)" fill="url(#linear-gradient-5)"/>
      </g>
    </g>
    <g id="Group_36556" data-name="Group 36556" transform="translate(169.404 35.835)">
      <g id="Group_36555" data-name="Group 36555" clip-path="url(#clip-path-21)">
        <rect id="Rectangle_2399" data-name="Rectangle 2399" width="20.609" height="22.084" transform="translate(-7.259 11.362) rotate(-63.297)" fill="url(#linear-gradient-6)"/>
      </g>
    </g>
    <g id="Group_36564" data-name="Group 36564">
      <g id="Group_36563" data-name="Group 36563" clip-path="url(#clip-path)">
        <path id="Path_14894" data-name="Path 14894" d="M272.257,24.989a.849.849,0,1,1-.843-.95.9.9,0,0,1,.843.95" transform="translate(-37.791 -3.358)" fill="#121435"/>
        <path id="Path_14895" data-name="Path 14895" d="M267.26,24.861a.849.849,0,1,1-.843-.95.9.9,0,0,1,.843.95" transform="translate(-37.093 -3.34)" fill="#121435"/>
        <path id="Path_14896" data-name="Path 14896" d="M268.642,29.326l5.635-1.522s.288,2.591-2.056,3.172a3.425,3.425,0,0,1-3.579-1.65" transform="translate(-37.522 -3.883)" fill="#fff"/>
        <g id="Group_36559" data-name="Group 36559" transform="translate(227.489 17.285)" opacity="0.25" style="mix-blend-mode: overlay;isolation: isolate">
          <g id="Group_36558" data-name="Group 36558">
            <g id="Group_36557" data-name="Group 36557" clip-path="url(#clip-path-23)">
              <path id="Path_14897" data-name="Path 14897" d="M279.391,26.576c-.328.771.466,3.513.466,3.513l.106.074c-.42,1.874.181,4.2-.189,5.627a4.414,4.414,0,0,1-2.511,1.685c2.669-4.385-.313-12.569-1.025-14.1-.877-1.883-5.539-1.352-9.379-.97a12.433,12.433,0,0,1-2.437.028,20.846,20.846,0,0,1,.619-2.344,28.1,28.1,0,0,0,8.212.453,3.339,3.339,0,0,1,3.342,2.691,2.467,2.467,0,0,1,2.141-1.426c1.7-.194,2.437.766,2.548,2.248s-1.565,1.753-1.893,2.52" transform="translate(-264.421 -20.091)"/>
            </g>
          </g>
        </g>
        <g id="Group_36562" data-name="Group 36562" transform="translate(233.503 29.045)" opacity="0.25" style="mix-blend-mode: overlay;isolation: isolate">
          <g id="Group_36561" data-name="Group 36561">
            <g id="Group_36560" data-name="Group 36560" clip-path="url(#clip-path-24)">
              <path id="Path_14898" data-name="Path 14898" d="M272.641,37.376c-.2-1.126-.609-2.521-.609-2.521a2.3,2.3,0,0,1-.619.231,8.884,8.884,0,0,0,2.2-1.2c1.089-.776.974,2.229-.974,3.489" transform="translate(-271.412 -33.76)"/>
            </g>
          </g>
        </g>
        <path id="Path_14899" data-name="Path 14899" d="M202.266,12.579a5.414,5.414,0,0,1,0,7.657l-1.412,1.421-7.019,7.023a.9.9,0,0,1-1.271,0l-7.283-7.3-.966-1.008a5.415,5.415,0,0,1,7.656-7.659L193.2,14l1.41-1.42A5.414,5.414,0,0,1,202.266,12.579Z" transform="translate(-25.523 -1.536)" fill="#e21a1a"/>
        <path id="Path_14900" data-name="Path 14900" d="M224.588,4.08a1.848,1.848,0,0,1-1.217,2.313l-.652.2L219.481,7.6a.307.307,0,0,1-.384-.2l-1.04-3.363-.132-.458a1.849,1.849,0,1,1,3.531-1.1l.167.583.652-.2a1.847,1.847,0,0,1,2.313,1.217" transform="translate(-30.427 -0.165)" fill="#ef3f3f"/>
        <path id="Path_14901" data-name="Path 14901" d="M170.055,17.2a1.85,1.85,0,0,1,1.757,1.937l-.032.683-.164,3.385a.3.3,0,0,1-.321.291l-3.515-.174-.476-.034a1.848,1.848,0,0,1,.18-3.693l.6.043.031-.683a1.85,1.85,0,0,1,1.936-1.756" transform="translate(-23.122 -2.402)" fill="#ef3f3f"/>
      </g>
    </g>
  </g>
</svg>
