<svg xmlns="http://www.w3.org/2000/svg" width="35.998" height="34.998" viewBox="0 0 35.998 34.998">
  <g id="love-birds" transform="translate(0 -7.11)">
    <path id="Path_14904" data-name="Path 14904" d="M2.9,235.377c-4.385-1.188-3.688,10.363,1.4,10.973Z" transform="translate(0 -212.139)" fill="#e697b2"/>
    <g id="Group_36574" data-name="Group 36574" transform="translate(4.336 34.995)">
      <path id="Path_14905" data-name="Path 14905" d="M376.468,413.6a5.77,5.77,0,0,0-1.5-1.642,9.735,9.735,0,0,0-1.386-3.981.543.543,0,0,0-.891.622,6.971,6.971,0,0,1,.691,1.444,10.278,10.278,0,0,1,.494,1.977,4.324,4.324,0,0,0-1.345,1.659.543.543,0,1,0,1.029.347,2.006,2.006,0,0,1,.435-.636c.005.2,0,.413,0,.627a.543.543,0,0,0,.527.559h.017a.543.543,0,0,0,.543-.527c.005-.177.006-.35,0-.52a2.81,2.81,0,0,1,.422.573.543.543,0,0,0,.964-.5Z" transform="translate(-350.647 -407.458)" fill="#ff8f00"/>
      <path id="Path_14906" data-name="Path 14906" d="M300.767,411.952a9.734,9.734,0,0,0-1.386-3.981.543.543,0,0,0-.891.622,6.974,6.974,0,0,1,.691,1.444,10.276,10.276,0,0,1,.494,1.977,4.325,4.325,0,0,0-1.346,1.659.543.543,0,1,0,1.029.347,2.007,2.007,0,0,1,.435-.636c.005.2,0,.413,0,.627a.543.543,0,0,0,.527.559h.017a.543.543,0,0,0,.543-.527c.005-.177.006-.35,0-.52a2.81,2.81,0,0,1,.422.573.543.543,0,0,0,.964-.5A5.767,5.767,0,0,0,300.767,411.952Z" transform="translate(-281.666 -407.456)" fill="#ff8f00"/>
      <path id="Path_14907" data-name="Path 14907" d="M64.328,408a10.28,10.28,0,0,1,.494-1.977,6.988,6.988,0,0,1,.691-1.444.543.543,0,0,0-.891-.622,9.733,9.733,0,0,0-1.386,3.981,5.773,5.773,0,0,0-1.5,1.642.543.543,0,1,0,.964.5,2.811,2.811,0,0,1,.422-.573c0,.17,0,.343,0,.52a.543.543,0,0,0,.543.527h.017a.543.543,0,0,0,.527-.559c-.006-.215-.007-.424,0-.627a2.007,2.007,0,0,1,.435.636.543.543,0,1,0,1.029-.347A4.324,4.324,0,0,0,64.328,408Z" transform="translate(-61.674 -403.722)" fill="#ff8f00"/>
      <path id="Path_14908" data-name="Path 14908" d="M131.508,412.008a10.285,10.285,0,0,1,.494-1.977,6.982,6.982,0,0,1,.691-1.443.543.543,0,0,0-.891-.622,9.733,9.733,0,0,0-1.386,3.981,5.773,5.773,0,0,0-1.5,1.642.543.543,0,0,0,.964.5,2.81,2.81,0,0,1,.422-.573c0,.17,0,.343,0,.52a.543.543,0,0,0,.543.527h.017a.543.543,0,0,0,.527-.559c-.006-.215-.007-.424,0-.627a2.007,2.007,0,0,1,.435.636.543.543,0,0,0,1.029-.347A4.322,4.322,0,0,0,131.508,412.008Z" transform="translate(-124.13 -407.452)" fill="#ff8f00"/>
    </g>
    <path id="Path_14909" data-name="Path 14909" d="M442.518,188.431c4.189-.678,5.74,10.642-1.443,14.044Z" transform="translate(-410.064 -168.545)" fill="#50b7e6"/>
    <g id="Group_36575" data-name="Group 36575" transform="translate(21.065 35.277)">
      <path id="Path_14910" data-name="Path 14910" d="M374.795,407.97a.543.543,0,0,0-.891.622,6.972,6.972,0,0,1,.691,1.444c.076.21.155.452.23.724.08-.026.161-.052.241-.08q.4-.139.78-.309A8.627,8.627,0,0,0,374.795,407.97Z" transform="translate(-368.59 -407.739)" fill="#e68100"/>
      <path id="Path_14911" data-name="Path 14911" d="M300.6,407.97a.543.543,0,0,0-.891.622,6.976,6.976,0,0,1,.691,1.444,9.816,9.816,0,0,1,.307,1.021,10.65,10.65,0,0,0,1.15.157A9.3,9.3,0,0,0,300.6,407.97Z" transform="translate(-299.61 -407.739)" fill="#e68100"/>
    </g>
    <path id="Path_14912" data-name="Path 14912" d="M183.911,65.364c1.344-6.292,10.72-8.017,14.395-1.491,3.369,5.981,4.784,19.022-3.5,21.9a8.966,8.966,0,0,1-4.781.293,8.513,8.513,0,0,1-4.046-2.006h-5.55Z" transform="translate(-167.746 -48.927)" fill="#59cbff"/>
    <path id="Path_14913" data-name="Path 14913" d="M185.131,110.956a4.875,4.875,0,0,0-.422-.245c-.045.076-.089.154-.133.234a6.744,6.744,0,0,0-.6,1.526q-.036.139-.066.281v0l-2.319,12.467-1.16,6.234h5.55a8,8,0,0,0,2.218,1.426,13.971,13.971,0,0,0-1.481-3.86,3.841,3.841,0,0,1-.339-3.975,18.2,18.2,0,0,0,1.9-7.056C188.419,114.035,186.644,111.982,185.131,110.956Z" transform="translate(-167.747 -96.317)" fill="#50b7e6"/>
    <g id="Group_36576" data-name="Group 36576" transform="translate(6.19 34.995)">
      <path id="Path_14914" data-name="Path 14914" d="M89.9,403.821a.543.543,0,0,0-.757.133,8.767,8.767,0,0,0-1.095,2.558,8.474,8.474,0,0,0,1.009.441,9.751,9.751,0,0,1,.285-.934,6.988,6.988,0,0,1,.691-1.444A.543.543,0,0,0,89.9,403.821Z" transform="translate(-88.051 -403.723)" fill="#e68100"/>
      <path id="Path_14915" data-name="Path 14915" d="M154.973,408.586a.543.543,0,0,0-.891-.622,9.318,9.318,0,0,0-1.265,3.276q.576,0,1.12-.03a9.912,9.912,0,0,1,.345-1.181A6.986,6.986,0,0,1,154.973,408.586Z" transform="translate(-148.263 -407.451)" fill="#e68100"/>
    </g>
    <path id="Path_14916" data-name="Path 14916" d="M50.885,143.15a6.177,6.177,0,0,1-1.552-7.367c1.79-3.645,2.872-9.034-.519-11.334-5.556-3.216-12.306.565-13.431,7.637S36.7,145.35,43.2,145.35,50.885,143.15,50.885,143.15Z" transform="translate(-32.649 -108.012)" fill="#ffa8c6"/>
    <g id="Group_36577" data-name="Group 36577" transform="translate(20.581 14.601)">
      <path id="Path_14917" data-name="Path 14917" d="M294.089,141.975a1.418,1.418,0,0,1-1.334-.938.543.543,0,0,1,1.023-.367.33.33,0,1,0,.621-.223.543.543,0,1,1,1.023-.367,1.416,1.416,0,0,1-1.332,1.894Z" transform="translate(-292.723 -137.888)" fill="#212121"/>
      <path id="Path_14918" data-name="Path 14918" d="M368.108,115.908a1.419,1.419,0,0,1-1.332-.939.543.543,0,0,1,1.023-.367.33.33,0,1,0,.621-.223.543.543,0,1,1,1.023-.367,1.418,1.418,0,0,1-1.334,1.9Z" transform="translate(-361.54 -113.653)" fill="#212121"/>
    </g>
    <path id="Path_14919" data-name="Path 14919" d="M339.424,174.274c.775,2.961,4.159,1.375,3.489-.546l-1.48-.435Z" transform="translate(-315.56 -154.498)" fill="#e68100"/>
    <path id="Path_14920" data-name="Path 14920" d="M339.424,159.842c0-1.339,1.3-3.313,4.018-1.022C343.442,158.82,342.314,160.37,339.424,159.842Z" transform="translate(-315.56 -140.066)" fill="#ff8f00"/>
    <g id="Group_36578" data-name="Group 36578" transform="translate(7.163 19.087)">
      <path id="Path_14921" data-name="Path 14921" d="M174.069,201.781a1.369,1.369,0,0,1-1.3-1.785.543.543,0,0,1,1.035.33.282.282,0,0,0,.538.172.543.543,0,1,1,1.035.33A1.371,1.371,0,0,1,174.069,201.781Z" transform="translate(-167.722 -198.06)" fill="#212121"/>
      <path id="Path_14922" data-name="Path 14922" d="M103.255,179.622a1.369,1.369,0,0,1-1.305-1.786.543.543,0,1,1,1.035.33.282.282,0,0,0,.538.172.543.543,0,1,1,1.035.33,1.371,1.371,0,0,1-1.3.953Z" transform="translate(-101.885 -177.459)" fill="#212121"/>
    </g>
    <path id="Path_14923" data-name="Path 14923" d="M122.863,234.1c-.634,2.824-3.884,1.438-3.315-.4l1.384-.461Z" transform="translate(-111.081 -210.234)" fill="#e68100"/>
    <path id="Path_14924" data-name="Path 14924" d="M116.923,220.349c-.045-1.266-1.343-3.087-3.831-.831C113.092,219.518,114.21,220.946,116.923,220.349Z" transform="translate(-105.141 -196.48)" fill="#ff8f00"/>
    <g id="Group_36579" data-name="Group 36579" transform="translate(7.68 7.11)">
      <path id="Path_14925" data-name="Path 14925" d="M184.082,11.349c4.988-1.905,2.39-5.07.421-3.554C182.943,5.861,179.678,8.331,184.082,11.349Z" transform="translate(-176.762 -7.11)" fill="#ff6418"/>
      <path id="Path_14926" data-name="Path 14926" d="M112.229,53.153c2.6-3.494-.573-4.537-1.265-2.631C109.043,49.873,107.876,53,112.229,53.153Z" transform="translate(-109.244 -46.595)" fill="#de2657"/>
    </g>
  </g>
</svg>
