<svg xmlns="http://www.w3.org/2000/svg" width="34.951" height="35.625" viewBox="0 0 34.951 35.625">
  <g id="party-popper" transform="translate(35.745 34.411) rotate(178)">
    <path id="Path_14958" data-name="Path 14958" d="M1,20.537l26.343-8.8a1.187,1.187,0,0,1,1.5,1.5l-8.8,26.344Z" transform="translate(5.881 -11.673)" fill="#fdc70e"/>
    <path id="Path_14959" data-name="Path 14959" d="M16.036,11.665s3.88.879,11.018,8.024C34,26.632,35.03,30.5,35.078,30.707v.007s-3.887-.879-11.028-8.02S16.036,11.665,16.036,11.665Z" transform="translate(-9.151 -2.802)" fill="#d39518"/>
    <path id="Path_14960" data-name="Path 14960" d="M4.18,41.843l3.9-1.3c.82.731,1.692,1.551,2.624,2.483s1.751,1.8,2.483,2.624l-1.3,3.9c-.991-1.2-2.2-2.536-3.686-4.022S5.377,42.834,4.18,41.843Z" transform="translate(19.728 -38.667)" fill="#2167d8"/>
    <path id="Path_14961" data-name="Path 14961" d="M10.04,23.918l4.193-1.4a48.706,48.706,0,0,1,6.446,5.543,48.707,48.707,0,0,1,5.543,6.446l-1.4,4.193a43.875,43.875,0,0,0-6.652-8.132,43.874,43.874,0,0,0-8.132-6.652Z" transform="translate(3.242 -17.191)" fill="#d3374e"/>
    <path id="Path_14962" data-name="Path 14962" d="M27.545,2.462a.59.59,0,0,1,.417,1.007,7.2,7.2,0,0,0-1.392,8.654.59.59,0,1,1-1.011.6A8.4,8.4,0,0,1,27.128,2.632a.586.586,0,0,1,.417-.17Z" transform="translate(-7.218 20.296)" fill="#2167d8"/>
    <path id="Path_14963" data-name="Path 14963" d="M21.776,6.693a.59.59,0,0,1,.417.173l.987.987a.59.59,0,1,1-.834.834L21.359,7.7a.59.59,0,0,1,.417-1.007Z" transform="translate(-0.462 21.986)" fill="#23af6f"/>
    <path id="Path_14964" data-name="Path 14964" d="M35.163,5.02a.59.59,0,0,1,.59.59V6.6a.59.59,0,1,1-1.179,0V5.61A.59.59,0,0,1,35.163,5.02Z" transform="translate(-20.756 24.645)" fill="#d3374e"/>
    <path id="Path_14965" data-name="Path 14965" d="M35.163,13.387h.987a.59.59,0,0,1,0,1.179h-.987a.59.59,0,1,1,0-1.179Z" transform="translate(-21.744 12.33)" fill="#23af6f"/>
    <path id="Path_14966" data-name="Path 14966" d="M49.543,29.36a.59.59,0,0,1,.417,1.007,8.4,8.4,0,0,1-10.1,1.569.59.59,0,0,1,.606-1.011,7.116,7.116,0,0,0,8.656-1.391A.59.59,0,0,1,49.543,29.36Z" transform="translate(-38.097 -15.484)" fill="#2167d8"/>
    <path id="Path_14967" data-name="Path 14967" d="M50.223,35.14a.59.59,0,0,1,.417.172l.987.987a.59.59,0,1,1-.834.834l-.987-.987a.59.59,0,0,1,.417-1.007Z" transform="translate(-45.685 -23.237)" fill="#23af6f"/>
    <path id="Path_14968" data-name="Path 14968" d="M51.9,23.427h.986a.59.59,0,0,1,0,1.179H51.9a.59.59,0,0,1,0-1.179Z" transform="translate(-48.345 -3.63)" fill="#d3374e"/>
    <path id="Path_14969" data-name="Path 14969" d="M45.2,21.753a.59.59,0,0,1,.59.59v.987a.59.59,0,1,1-1.179,0v-.987A.59.59,0,0,1,45.2,21.753Z" transform="translate(-36.717 -1.956)" fill="#d3374e"/>
    <path id="Path_14970" data-name="Path 14970" d="M44.746,6.669a.59.59,0,0,1,.417,1.007,2.4,2.4,0,0,1-1.9.665h-.013a1.169,1.169,0,0,0-1.369,1.381,2.323,2.323,0,0,1-2.563,2.564,1.179,1.179,0,0,0-1.389,1.389,2.4,2.4,0,0,1-.667,1.9.59.59,0,1,1-.831-.836,1.255,1.255,0,0,0,.321-1.062,2.325,2.325,0,0,1,2.565-2.565A1.175,1.175,0,0,0,40.7,9.723a2.391,2.391,0,0,1,.665-1.9,2.421,2.421,0,0,1,1.9-.665h.014a1.235,1.235,0,0,0,1.049-.32.59.59,0,0,1,.418-.173Z" transform="translate(-31.326 15.102)" fill="#fdc70e"/>
    <g id="Group_36652" data-name="Group 36652" transform="translate(0 22.757)">
      <path id="Path_14971" data-name="Path 14971" d="M40.706,0a.59.59,0,0,1,.545.814,5.468,5.468,0,0,0-.025,4.432.59.59,0,1,1-1.04.557A6.649,6.649,0,0,1,40.161.362.59.59,0,0,1,40.706,0Z" transform="translate(-29.261 5.924)" fill="#d3374e"/>
      <path id="Path_14972" data-name="Path 14972" d="M55.157,17.517a.59.59,0,0,1,.225,1.135,6.644,6.644,0,0,1-5.438-.026.59.59,0,0,1,.557-1.04,5.465,5.465,0,0,0,4.432-.025A.593.593,0,0,1,55.157,17.517Z" transform="translate(-49.632 -17.516)" fill="#d3374e"/>
    </g>
  </g>
</svg>
