<svg xmlns="http://www.w3.org/2000/svg" width="17.743" height="17.405" viewBox="0 0 17.743 17.405">
  <g id="birthday-cake" transform="translate(0 -4.88)">
    <path id="XMLID_62_" d="M105.751,7.9a1.056,1.056,0,0,0,1.056-1.056,5.646,5.646,0,0,0-.782-1.8.317.317,0,0,0-.548,0,5.647,5.647,0,0,0-.782,1.8A1.056,1.056,0,0,0,105.751,7.9Z" transform="translate(-101.067)" fill="#de2657"/>
    <path id="XMLID_123_" d="M226.582,7.9a1.056,1.056,0,0,0,1.056-1.056,5.646,5.646,0,0,0-.782-1.8.317.317,0,0,0-.548,0,5.647,5.647,0,0,0-.782,1.8A1.056,1.056,0,0,0,226.582,7.9Z" transform="translate(-217.71)" fill="#de2657"/>
    <path id="XMLID_122_" d="M347.412,7.9a1.056,1.056,0,0,0,1.056-1.056,5.646,5.646,0,0,0-.782-1.8.317.317,0,0,0-.548,0,5.646,5.646,0,0,0-.782,1.8A1.056,1.056,0,0,0,347.412,7.9Z" transform="translate(-334.353)" fill="#de2657"/>
    <path id="XMLID_121_" d="M105.362,116.951a.468.468,0,0,0-.468.468v3.775h2.1v-3.775a.468.468,0,0,0-.468-.468h-1.163Z" transform="translate(-101.259 -108.187)" fill="#de2657"/>
    <path id="XMLID_120_" d="M226.192,116.951a.468.468,0,0,0-.468.468v3.775h2.1v-3.775a.468.468,0,0,0-.468-.468h-1.163Z" transform="translate(-217.902 -108.187)" fill="#de2657"/>
    <path id="XMLID_61_" d="M347.023,116.951a.468.468,0,0,0-.468.468v3.775h2.1v-3.775a.468.468,0,0,0-.468-.468h-1.163Z" transform="translate(-334.545 -108.187)" fill="#de2657"/>
    <path id="XMLID_52_" d="M44.254,277.293a.9.9,0,0,0,.257-.037l1.312-.388a4.694,4.694,0,0,1,2.647,0l1.036.307a4.694,4.694,0,0,0,2.647,0l1.036-.307a4.694,4.694,0,0,1,2.647,0l1.312.388a.907.907,0,0,0,.257.037.744.744,0,0,0,.79-.684v-1.34a.874.874,0,0,0-.93-.8H44.394a.874.874,0,0,0-.93.8v1.34A.744.744,0,0,0,44.254,277.293Z" transform="translate(-41.958 -260.242)" fill="#de2657"/>
    <path id="XMLID_51_" d="M17.224,372.082H15.8v-3.188a1.935,1.935,0,0,1-.91-.047l-1.312-.388a3.654,3.654,0,0,0-2.057,0l-1.036.307a5.733,5.733,0,0,1-3.237,0l-1.036-.307a3.654,3.654,0,0,0-2.057,0l-1.312.388a1.934,1.934,0,0,1-.91.047v3.188H.52a.52.52,0,0,0,0,1.04h16.7a.52.52,0,0,0,0-1.04Z" transform="translate(0 -350.837)" fill="#de2657"/>
  </g>
</svg>
