<svg xmlns="http://www.w3.org/2000/svg" width="19.13" height="23.889" viewBox="0 0 19.13 23.889">
  <g id="cocktail" transform="translate(-3.721 0)">
    <path id="Path_14441" data-name="Path 14441" d="M22.671,5.91a.649.649,0,0,0-.469-1.1H17.258L18.01,3.2A1.464,1.464,0,0,0,19.8,2.485,1.462,1.462,0,0,0,19.2.653L19.36.308a.216.216,0,0,0-.392-.183l-.161.345a1.462,1.462,0,0,0-1.792.715,1.462,1.462,0,0,0,.6,1.832L16.78,4.811H4.371A.649.649,0,0,0,3.9,5.91L12.694,15.1v7.657H10.251a.569.569,0,0,0,0,1.137h6.071a.569.569,0,0,0,0-1.137H13.879V15.1Zm-6.5.2-.841,1.8H8.568l4.719,4.93,4.719-4.93H15.812l.841-1.8h4.029l-7.394,7.726-7.4-7.726Z" transform="translate(0)" fill="#de2657"/>
  </g>
</svg>
