<svg xmlns="http://www.w3.org/2000/svg" width="18.13" height="19.4" viewBox="0 0 18.13 19.4">
  <g id="male-and-female-avatars" transform="translate(-15.561)">
    <g id="Group_35570" data-name="Group 35570" transform="translate(15.561)">
      <path id="Path_14453" data-name="Path 14453" d="M17.677,135.55v3.482a1,1,0,0,0,.995.995h.148a1,1,0,0,0,.995-.995V135.55h.847v3.482a1,1,0,0,0,.995.995H21.8a1,1,0,0,0,.995-.995V135.55h.442a1,1,0,0,0,.995-.995l-.19-.857c.661-.181.467-.5.467-.5s-1.492-6.273-1.6-6.8a.87.87,0,0,0-.628-.642v0a3.137,3.137,0,0,1-4.27,0L18,125.81l.009-.046a.87.87,0,0,0-.644.626c-.124.522-1.773,6.756-1.773,6.756s-.242.371.654.56l-.189.85a1,1,0,0,0,.995.995h.626Z" transform="translate(-15.561 -120.626)" fill="#de2657"/>
      <path id="Path_14454" data-name="Path 14454" d="M59.591,4.73a2.814,2.814,0,1,0-.752-1.911A2.809,2.809,0,0,0,59.591,4.73Z" transform="translate(-57.073)" fill="#de2657"/>
      <path id="Path_14455" data-name="Path 14455" d="M270.656,124.439l-.009.008a3.131,3.131,0,0,1-4.355,0l-.011-.01c-.012,0-.02-.005-.033-.005a2.3,2.3,0,0,0-1.827,1.951v5.843a1.075,1.075,0,0,0,1.163.956c.033,0,.064-.006.1-.008a.983.983,0,0,0,.017.163.843.843,0,0,0-.018.154v4.021a1.08,1.08,0,0,0,1.149.995H267a1.08,1.08,0,0,0,1.149-.995v-3.358h.643v3.441a1.071,1.071,0,0,0,1.134.995h.169a1.071,1.071,0,0,0,1.134-.995v-4.021a.863.863,0,0,0-.015-.128.969.969,0,0,0,.045-.266,1.069,1.069,0,0,0,1.14-.954v-5.843A2.332,2.332,0,0,0,270.656,124.439Z" transform="translate(-254.267 -119.355)" fill="#de2657"/>
      <path id="Path_14456" data-name="Path 14456" d="M295.625,5.016a2.816,2.816,0,1,0-1.057-2.2A2.8,2.8,0,0,0,295.625,5.016Z" transform="translate(-283.185)" fill="#de2657"/>
    </g>
  </g>
</svg>
