<svg xmlns="http://www.w3.org/2000/svg" width="14.289" height="20" viewBox="0 0 14.289 20">
  <g id="Group_35574" data-name="Group 35574" transform="translate(-10585.958 1134.638)">
    <g id="height" transform="translate(10585.958 -1134.638)">
      <path id="Path_14451" data-name="Path 14451" d="M0,20H7.857V18.928h-5a.357.357,0,1,1,0-.714h5V17.5h-2.5a.357.357,0,1,1,0-.714h2.5v-.714h-5a.357.357,0,1,1,0-.714h5v-.714h-2.5a.357.357,0,1,1,0-.714h2.5v-.714h-5a.357.357,0,1,1,0-.714h5v-.714h-2.5a.357.357,0,1,1,0-.714h2.5v-.714h-5a.357.357,0,0,1,0-.714h5V8.928h-2.5a.357.357,0,1,1,0-.714h2.5V7.5h-5a.357.357,0,1,1,0-.714h5V6.071h-2.5a.357.357,0,1,1,0-.714h2.5V4.642h-5a.357.357,0,1,1,0-.714h5V3.214h-2.5a.357.357,0,1,1,0-.714h2.5V1.785h-5a.357.357,0,1,1,0-.714h5V0H0Zm0,0" transform="translate(0.001 0)" fill="#de2657"/>
      <g id="standing-up-man-" transform="translate(9.279 8.144)">
        <g id="Group_35573" data-name="Group 35573" transform="translate(0 0)">
          <circle id="Ellipse_10" data-name="Ellipse 10" cx="0.998" cy="0.998" r="0.998" transform="translate(1.488)" fill="#de2657"/>
          <path id="Path_14459" data-name="Path 14459" d="M18.293,11.036a1.817,1.817,0,0,0-.763.009c-1.659.194-2.2,2.115-2.046,3.579.066.633,1.064.64,1,0a3.8,3.8,0,0,1,.252-1.911V14.8c0,.025,0,.048,0,.071s0,.021,0,.032c0,1.656,0,3.311-.071,4.966-.03.736,1.11.733,1.14,0,.054-1.3.067-2.594.07-3.892a1.32,1.32,0,0,0,.162,0c0,1.3.016,2.6.07,3.892.03.733,1.171.736,1.14,0-.068-1.655-.071-3.31-.071-4.966a.625.625,0,0,0-.017-.143c0-.719-.029-1.439-.021-2.157a3.618,3.618,0,0,1,.312,2.02c-.067.639.931.633,1,0C20.6,13.13,20.036,11.16,18.293,11.036Z" transform="translate(-15.459 -8.565)" fill="#de2657"/>
        </g>
      </g>
    </g>
  </g>
</svg>
