<svg id="information-button" xmlns="http://www.w3.org/2000/svg" width="26.713" height="26.713" viewBox="0 0 26.713 26.713">
  <path id="Path_14651" data-name="Path 14651" d="M13.356,0A13.356,13.356,0,1,0,26.713,13.356,13.357,13.357,0,0,0,13.356,0Zm2.78,20.7q-1.031.407-1.645.62a4.34,4.34,0,0,1-1.427.214,2.844,2.844,0,0,1-1.941-.609,1.967,1.967,0,0,1-.691-1.546,5.614,5.614,0,0,1,.051-.745c.035-.253.09-.538.166-.858l.86-3.039c.076-.292.141-.569.193-.827a3.665,3.665,0,0,0,.077-.716,1.1,1.1,0,0,0-.24-.811,1.362,1.362,0,0,0-.919-.227,2.413,2.413,0,0,0-.684.1c-.232.071-.433.136-.6.2l.227-.936q.845-.344,1.617-.589a4.777,4.777,0,0,1,1.459-.246,2.791,2.791,0,0,1,1.913.6,1.991,1.991,0,0,1,.672,1.556q0,.2-.046.7a4.668,4.668,0,0,1-.172.917l-.856,3.03c-.07.243-.132.521-.189.832a4.4,4.4,0,0,0-.083.708,1.017,1.017,0,0,0,.27.823,1.513,1.513,0,0,0,.935.219,2.712,2.712,0,0,0,.708-.11,4.024,4.024,0,0,0,.572-.192ZM15.985,8.4a2.043,2.043,0,0,1-1.442.556A2.064,2.064,0,0,1,13.1,8.4a1.776,1.776,0,0,1-.6-1.349A1.794,1.794,0,0,1,13.1,5.7a2.049,2.049,0,0,1,1.447-.562,2.026,2.026,0,0,1,1.442.562,1.822,1.822,0,0,1,0,2.7Z" fill="#eaeaea"/>
</svg>
