<svg xmlns="http://www.w3.org/2000/svg" width="16.36" height="14.227" viewBox="0 0 16.36 14.227">
  <g id="briefcase_1_" data-name="briefcase (1)" transform="translate(0 -32.857)">
    <path id="Path_14439" data-name="Path 14439" d="M14.728,35.5H11.2v-1.42a1.227,1.227,0,0,0-1.226-1.226h-3.6a1.227,1.227,0,0,0-1.226,1.226V35.5H1.631A1.63,1.63,0,0,0,0,37.131,3.383,3.383,0,0,0,.538,39.5a2.65,2.65,0,0,0,1.389.961l5.431,1.581a2.935,2.935,0,0,0,1.644,0l5.431-1.581a2.65,2.65,0,0,0,1.389-.961,3.385,3.385,0,0,0,.534-2.371A1.63,1.63,0,0,0,14.728,35.5Zm-8.535-1.42a.188.188,0,0,1,.188-.188h3.6a.188.188,0,0,1,.188.188V35.5H6.193Z" transform="translate(0)" fill="#de2657"/>
    <path id="Path_14440" data-name="Path 14440" d="M14.836,268.543c-5.858,1.706-5.782,1.74-6.543,1.74s-.576,0-6.543-1.74a3.677,3.677,0,0,1-1.633-.986v4.983a1.63,1.63,0,0,0,1.628,1.628h13.1a1.63,1.63,0,0,0,1.628-1.628v-4.983a3.678,3.678,0,0,1-1.633.986Z" transform="translate(-0.114 -227.084)" fill="#de2657"/>
  </g>
</svg>
