<svg xmlns="http://www.w3.org/2000/svg" width="18.71" height="16.13" viewBox="0 0 18.71 16.13">
  <g id="voice" transform="translate(0 -35.294)">
    <path id="Path_14463" data-name="Path 14463" d="M412.35,35.454a.548.548,0,0,0-.775.775,8.268,8.268,0,0,1,0,11.68.548.548,0,1,0,.775.775,9.355,9.355,0,0,0,0-13.23Z" transform="translate(-396.38)" fill="#de2657"/>
    <path id="Path_14464" data-name="Path 14464" d="M366.9,80.9a.548.548,0,0,0-.775.775,5.91,5.91,0,0,1,0,8.358.548.548,0,1,0,.775.775,7.006,7.006,0,0,0,0-9.909Z" transform="translate(-352.595 -43.783)" fill="#de2657"/>
    <path id="Path_14465" data-name="Path 14465" d="M321.465,126.34a.548.548,0,0,0-.775.775,3.566,3.566,0,0,1,0,5.037.548.548,0,1,0,.775.775A4.664,4.664,0,0,0,321.465,126.34Z" transform="translate(-308.816 -87.565)" fill="#de2657"/>
    <path id="Path_14466" data-name="Path 14466" d="M275.243,171.786a.548.548,0,0,0,0,.775,1.213,1.213,0,0,1,0,1.716.548.548,0,1,0,.775.775,2.309,2.309,0,0,0,0-3.266A.548.548,0,0,0,275.243,171.786Z" transform="translate(-265.03 -131.35)" fill="#de2657"/>
    <path id="Path_14467" data-name="Path 14467" d="M4.218,45.04a4.218,4.218,0,1,0,4.218,4.218A4.222,4.222,0,0,0,4.218,45.04Z" transform="translate(0 -9.39)" fill="#de2657"/>
    <path id="Path_14468" data-name="Path 14468" d="M4.218,281.285a5.283,5.283,0,0,1-3-.933A4.2,4.2,0,0,0,0,283.31v3.669a.548.548,0,0,0,.548.548H7.887a.548.548,0,0,0,.548-.548V283.31a4.2,4.2,0,0,0-1.214-2.958A5.284,5.284,0,0,1,4.218,281.285Z" transform="translate(0 -236.103)" fill="#de2657"/>
  </g>
</svg>
