<svg id="Group_35900" data-name="Group 35900" xmlns="http://www.w3.org/2000/svg" width="47.588" height="47.588" viewBox="0 0 47.588 47.588">
  <g id="Group_35891" data-name="Group 35891" transform="translate(0 0)">
    <g id="Group_35656" data-name="Group 35656" transform="translate(0 0)">
      <circle id="Ellipse_14" data-name="Ellipse 14" cx="23.794" cy="23.794" r="23.794" fill="none"/>
    </g>
    <circle id="Ellipse_14-2" data-name="Ellipse 14" cx="23.794" cy="23.794" r="23.794" transform="translate(0 0)" fill="#de2657"/>
  </g>
  <g id="Group_35892" data-name="Group 35892" transform="translate(10.947 13.503)">
    <g id="Group_35658" data-name="Group 35658">
      <path id="Path_14474" data-name="Path 14474" d="M109.686,121a6.767,6.767,0,0,0-5.84,3.586A6.767,6.767,0,0,0,98.007,121a6.631,6.631,0,0,0-5.1,2.361,8.256,8.256,0,0,0-1.9,5.39,9.976,9.976,0,0,0,2.621,6.461,57.823,57.823,0,0,0,6.425,6.175c.964.845,1.96,1.718,3.019,2.671a1.168,1.168,0,0,0,1.563,0c1.059-.953,2.055-1.826,3.019-2.671a57.82,57.82,0,0,0,6.425-6.175,9.975,9.975,0,0,0,2.621-6.461C116.694,124.574,113.833,121,109.686,121Z" transform="translate(-91 -121)" fill="#fff"/>
    </g>
  </g>
</svg>
