<svg id="Group_35902" data-name="Group 35902" xmlns="http://www.w3.org/2000/svg" width="47.588" height="47.588" viewBox="0 0 47.588 47.588">
  <g id="Group_35897" data-name="Group 35897">
    <g id="Group_35896" data-name="Group 35896">
      <path id="Path_14538" data-name="Path 14538" d="M23.794,0A23.794,23.794,0,1,0,47.588,23.794,23.781,23.781,0,0,0,23.794,0Zm0,43.87A20.076,20.076,0,1,1,43.87,23.794,20.065,20.065,0,0,1,23.794,43.87Z" fill="#ff8e12"/>
    </g>
  </g>
  <g id="Group_35899" data-name="Group 35899" transform="translate(16.015 16.014)">
    <g id="Group_35898" data-name="Group 35898">
      <path id="Path_14539" data-name="Path 14539" d="M177.627,175.272l-4.937-4.937,4.937-4.937a1.665,1.665,0,1,0-2.355-2.355l-4.937,4.937-4.937-4.937a1.665,1.665,0,1,0-2.355,2.355l4.937,4.937-4.937,4.937a1.665,1.665,0,1,0,2.355,2.355l4.937-4.937,4.937,4.937a1.665,1.665,0,1,0,2.355-2.355Z" transform="translate(-162.555 -162.556)" fill="#ff8e12"/>
    </g>
  </g>
</svg>
