<svg id="check" xmlns="http://www.w3.org/2000/svg" width="27.379" height="27.379" viewBox="0 0 27.379 27.379">
  <g id="Group_35857" data-name="Group 35857">
    <g id="Group_35856" data-name="Group 35856">
      <path id="Path_14511" data-name="Path 14511" d="M13.69,0a13.69,13.69,0,1,0,13.69,13.69A13.69,13.69,0,0,0,13.69,0Zm0,25.424A11.734,11.734,0,1,1,25.424,13.69,11.734,11.734,0,0,1,13.69,25.424Z" fill="#de2657"/>
    </g>
  </g>
  <g id="Group_35859" data-name="Group 35859" transform="translate(5.855 7.835)">
    <g id="Group_35858" data-name="Group 35858">
      <path id="Path_14512" data-name="Path 14512" d="M117.537,137.018a.978.978,0,0,0-1.359,0h0l-9.087,9.087-3.22-3.22a.978.978,0,0,0-1.407,1.359l.024.024,3.911,3.911a.978.978,0,0,0,1.383,0l9.778-9.778A.978.978,0,0,0,117.537,137.018Z" transform="translate(-102.19 -136.743)" fill="#de2657"/>
    </g>
  </g>
</svg>
