<svg xmlns="http://www.w3.org/2000/svg" width="26" height="26" viewBox="0 0 26 26">
  <g id="Group_35695" data-name="Group 35695" transform="translate(-44.861 -593.861)">
    <g id="Group_35671" data-name="Group 35671" transform="translate(46 595)">
      <circle id="Ellipse_14" data-name="Ellipse 14" cx="12" cy="12" r="12" transform="translate(-0.139 -0.139)" fill="#ff8e12" stroke="#ff8e12" stroke-width="2"/>
      <path id="Path_14478" data-name="Path 14478" d="M151.216,143.391a.791.791,0,0,0-1.119,0l-2.8,2.8-2.8-2.8a.791.791,0,0,0-1.119,1.119l2.8,2.8-2.8,2.8a.791.791,0,0,0,1.119,1.119l2.8-2.8,2.8,2.8a.791.791,0,0,0,1.119-1.119l-2.8-2.8,2.8-2.8A.791.791,0,0,0,151.216,143.391Z" transform="translate(-135.534 -135.54)" fill="#fff"/>
    </g>
  </g>
</svg>
